<svg width="150" height="150" viewBox="0 0 150 150" fill="none" xmlns="http://www.w3.org/2000/svg">
<rect width="150" height="150" rx="15" fill="#008DE4"/>
<path d="M85.1476 12.6965C84.3478 12.6081 83.5487 12.5238 82.7497 12.4315C78.1626 11.8969 73.5781 11.9244 69.0012 12.5379C62.9083 13.3554 57.1277 15.1411 51.7809 18.2138C46.7303 21.1164 42.5101 24.9055 39.4852 29.9362C37.3698 33.4533 36.1039 37.2567 35.6972 41.3454C35.3585 44.7414 35.7199 48.065 36.5279 51.3749C36.9408 53.0673 37.1503 54.8098 37.4098 56.5369C38.4687 63.6017 39.5387 70.6644 40.5422 77.7369C40.8119 79.6346 41.019 81.5346 41.5782 83.3759C43.0397 88.1793 45.6264 92.2825 49.2653 95.7307C49.4167 95.8737 49.6246 95.9877 49.7094 96.1635C49.8002 96.3511 49.7746 96.5936 49.8004 96.8129C49.9033 96.7502 50.0063 96.6875 50.109 96.6262C49.2548 98.3831 48.3995 100.139 47.5476 101.897C46.3339 104.399 45.2664 106.959 44.5213 109.643C43.6978 112.607 43.1356 115.597 43.6805 118.694C44.4591 123.117 46.6651 126.727 49.9576 129.71C52.6022 132.107 55.6604 133.79 59.0773 134.808C65.1113 136.603 71.0447 136.401 76.796 133.726C80.7469 131.888 83.8185 129.083 85.7622 125.128C86.6238 123.375 87.0386 121.5 87.3581 119.585C88.0264 115.573 87.8219 111.558 87.5498 107.536C87.4868 106.608 87.4593 105.679 87.3797 104.753C87.355 104.46 87.4637 104.372 87.7041 104.288C93.9892 102.081 99.0255 98.2048 102.512 92.5542C107.345 84.7214 112.656 77.2098 117.664 69.4958C118.267 68.5689 119.037 67.7529 119.701 66.8624C122.126 63.6139 123.817 60.0252 124.665 56.0502C124.714 55.8213 124.79 55.5972 124.855 55.3711C124.889 55.1788 124.923 54.9877 124.957 54.7953C124.98 54.5333 124.989 54.2703 125.024 54.0106C125.611 49.8123 125.227 45.6934 123.909 41.6757C121.74 35.0654 117.847 29.5847 112.689 24.9858C109.709 22.3273 106.508 19.9481 102.896 18.1978C100.253 16.9173 97.5686 15.7304 94.6937 15.0281C93.238 14.6731 91.8116 14.199 90.3652 13.7997C89.5364 13.5711 88.696 13.385 87.8617 13.1798C86.9561 13.0185 86.0519 12.8575 85.1476 12.6965ZM85.4171 15.2625C90.268 16.1424 94.3474 17.3143 98.259 19.0869C103.546 21.4837 108.365 24.5439 112.404 28.7517C115.535 32.015 117.978 35.7133 119.323 40.0694C120.587 44.1626 120.661 48.2734 119.355 52.3707C118.218 55.9404 116.19 58.9587 113.497 61.5387C109.968 64.9201 105.787 67.2094 101.193 68.7731C93.7671 71.3 86.149 71.7662 78.4142 70.7495C73.8615 70.1508 69.4423 69.0142 65.1773 67.3003C59.9396 65.1957 55.148 62.3673 50.9896 58.5229C47.4929 55.2918 44.6569 51.5803 42.9614 47.0902C40.7605 41.26 40.9409 35.523 43.8648 29.968C46.4596 25.0403 50.5932 21.6841 55.391 19.0942C57.9274 17.7245 60.6729 16.8336 63.465 16.1129C70.9405 14.1807 78.4753 14.0534 85.4171 15.2625ZM84.9452 105.111C85.026 106.416 85.0911 107.689 85.1847 108.959C85.47 112.81 85.4719 116.643 84.7193 120.453C84.3862 122.134 83.8402 123.721 82.9492 125.184C80.7915 128.726 77.629 131.004 73.762 132.324C68.456 134.136 63.1767 133.873 57.9916 131.829C53.7451 130.155 50.3177 127.445 47.9811 123.469C46.5121 120.967 45.7619 118.258 45.9385 115.347C46.093 112.804 46.7823 110.365 47.6229 107.973C48.5487 105.336 49.7901 102.838 51.0265 100.338C51.387 99.6093 51.7415 98.8772 52.1144 98.1174C56.87 101.573 62.1732 103.636 67.8252 104.9C73.5084 106.172 79.2009 106.443 84.9452 105.111ZM78.0278 81.9502C78.0278 82.0258 78.0374 82.1086 78.026 82.1875C77.6913 84.7648 77.3988 87.3481 77.0073 89.9179C76.571 92.7781 75.9883 95.6109 74.9884 98.337C74.5615 99.4991 74.0758 100.634 73.2397 101.576C72.8531 102.011 72.4044 102.393 71.7988 102.412C70.866 102.442 69.9511 102.295 69.0521 101.968C69.0996 101.822 69.1318 101.702 69.175 101.589C70.3623 98.507 71.5129 95.4121 72.748 92.3499C74.0868 89.032 75.4984 85.7447 76.895 82.4506C77.1796 81.7776 77.2135 81.7917 77.9419 81.8944C77.9563 81.897 77.9675 81.9098 78.0278 81.9502ZM66.1756 79.3686C66.8915 79.4273 66.9564 79.4874 66.9736 80.0886C67.0916 84.4381 66.7318 88.7714 66.5129 93.1096C66.3993 95.3698 66.3075 97.6297 66.2101 99.8901C66.1902 100.351 66.1914 100.814 66.1814 101.303C64.9829 100.914 63.8522 100.53 62.7107 100.185C62.3814 100.086 62.2513 99.9291 62.2884 99.5995C62.4658 98.0271 62.5308 96.4334 62.8349 94.8849C63.6892 90.5344 64.636 86.2029 65.5581 81.8658C65.7388 81.0258 65.97 80.1975 66.1756 79.3686ZM68.3542 98.2898C68.3158 98.2857 68.276 98.2813 68.2379 98.2759C68.5861 92.2785 68.9355 86.2826 69.2843 80.2746C71.1443 80.6868 72.9406 81.0849 74.8046 81.4978C73.0703 87.2646 70.5094 92.6993 68.3542 98.2898ZM89.2515 82.1166C88.8673 83.2889 88.5007 84.4375 88.1164 85.5801C86.8621 89.3032 85.4611 92.9705 83.7632 96.516C83.0498 98.0051 82.3022 99.4813 81.2469 100.768C80.0573 102.217 78.0434 102.858 76.3651 102.336C76.4333 102.241 76.4902 102.149 76.56 102.068C78.1191 100.265 79.4275 98.285 80.6168 96.2312C83.2582 91.6709 85.8677 87.0928 88.4822 82.517C88.6489 82.2253 88.821 82.017 89.2515 82.1166ZM76.6214 99.3798C76.5879 99.3631 76.5555 99.3478 76.5221 99.3311C77.9558 93.6066 79.3881 87.8833 80.8137 82.1898C82.5489 82.226 84.2181 82.2613 85.9184 82.2967C85.8691 82.4216 85.8356 82.5264 85.7887 82.6233C85.0554 84.148 84.3446 85.6835 83.579 87.1929C81.715 90.8669 79.8092 94.5185 77.5936 97.9989C77.2918 98.4731 76.9462 98.9205 76.6214 99.3798ZM59.4205 98.5542C57.1494 97.7137 55.7386 96.2649 55.33 93.9267C55.055 92.3547 55.095 90.7728 55.175 89.1938C55.3644 85.408 55.57 81.6224 55.7941 77.8387C55.8526 76.8582 56.0046 75.8834 56.1131 74.9023C56.5185 74.938 56.5583 75.1922 56.6034 75.4621C57.1781 78.9601 57.3508 82.4944 57.5922 86.0221C57.8314 89.5386 58.0202 93.0582 58.9605 96.4822C59.1399 97.1352 59.2558 97.8039 59.4205 98.5542ZM84.3095 99.1272C84.2676 99.0968 84.2271 99.0667 84.1855 99.035C84.2627 98.8286 84.3287 98.6176 84.4172 98.416C86.8134 92.9736 89.2106 87.5328 91.6218 82.0972C91.689 81.9471 91.9028 81.8002 92.0706 81.768C93.3636 81.5203 94.6632 81.3034 95.9586 81.0723C96.2376 81.0221 96.512 80.9521 96.8673 80.875C96.7568 81.0633 96.6926 81.1814 96.6201 81.2927C94.1048 85.0991 91.5921 88.906 89.0707 92.7086C88.0355 94.2686 87.0101 95.8345 85.9222 97.3568C85.4613 98.0038 84.8514 98.5406 84.3095 99.1272ZM58.9082 76.364C60.5513 77.0845 62.093 77.7601 63.6123 78.4248C62.5556 84.3595 61.5028 90.272 60.4501 96.1844C60.1937 94.6293 59.9507 93.082 59.8471 91.5257C59.6345 88.3448 59.5106 85.158 59.3225 81.976C59.2132 80.1258 59.0522 78.2771 58.9082 76.364ZM50.1487 70.8808C50.2681 70.9304 50.3095 70.9405 50.3419 70.9638C51.5102 71.7875 52.6821 72.6064 53.8378 73.4481C53.9634 73.5393 54.0592 73.767 54.0558 73.9298C54.0258 75.6377 53.977 77.3451 53.9242 79.0517C53.8485 81.509 53.7623 83.9644 53.6866 86.4216C53.643 87.872 53.613 89.3221 53.5738 90.8691C53.4752 90.6801 53.4073 90.5762 53.3652 90.4634C52.6669 88.5771 52.3437 86.601 52.0069 84.6333C51.2299 80.0949 50.648 75.5304 50.1487 70.8808ZM77.3335 73.1183C77.3304 73.219 77.3374 73.2634 77.3267 73.3007C76.7669 75.1479 76.2084 76.9953 75.6334 78.8371C75.6051 78.9279 75.4002 79.04 75.3025 79.0199C73.4797 78.6413 71.6604 78.2431 69.84 77.8515C69.6019 77.801 69.5271 77.6675 69.562 77.4334C69.6052 77.1454 69.6183 76.852 69.6602 76.5638C69.8641 75.1609 70.0743 73.7604 70.2808 72.3579C70.3316 72.0119 70.4717 71.8775 70.8688 71.9523C72.8904 72.3366 74.9182 72.6855 76.9451 73.0477C77.065 73.0718 77.1857 73.0919 77.3335 73.1183ZM81.2835 79.8013C81.4569 77.7206 81.6224 75.737 81.7893 73.7456C84.2213 73.8343 86.5865 73.9193 88.9582 74.0054C88.9648 74.12 88.9728 74.1889 88.9729 74.2565C88.9476 76.1651 88.3154 77.9036 87.459 79.5738C87.4097 79.6689 87.2405 79.7549 87.1268 79.7563C85.1864 79.7807 83.2474 79.7892 81.2835 79.8013ZM64.0714 75.8846C64.013 75.8864 63.9827 75.8972 63.9601 75.8877C62.3606 75.1574 60.7589 74.432 59.1666 73.6841C59.0484 73.6279 58.9391 73.4154 58.9347 73.2729C58.8933 71.86 58.8967 70.4457 58.8389 69.0339C58.8171 68.4967 58.9357 68.0737 59.3197 67.6911C59.5102 67.5009 59.631 67.467 59.8801 67.5843C61.1813 68.2008 62.4926 68.7975 63.8063 69.3892C64.495 69.6995 65.1961 69.985 65.8174 70.2495C65.4704 71.2273 65.1167 72.1297 64.8309 73.0523C64.5444 73.9787 64.3257 74.9267 64.0714 75.8846ZM51.9323 92.6952C51.7548 92.5853 51.6392 92.5215 51.5297 92.4466C49.7648 91.2346 48.8393 89.5022 48.4302 87.4474C47.3895 82.2139 46.7725 76.929 46.5128 71.6011C46.4488 70.2922 46.4529 68.9806 46.4269 67.6704C46.4879 67.6542 46.549 67.6368 46.6086 67.6204C46.7316 67.9082 46.9132 68.185 46.9688 68.4865C47.9706 73.9007 48.936 79.3219 49.9546 84.7323C50.4312 87.265 50.8301 89.8243 51.8177 92.2319C51.8679 92.3516 51.8828 92.4879 51.9323 92.6952ZM83.8483 101.224C83.8242 101.193 83.7988 101.161 83.7746 101.13C83.9326 100.933 84.0768 100.722 84.2521 100.541C85.15 99.6158 86.1029 98.7378 86.9494 97.7679C89.0975 95.3029 90.8781 92.5673 92.6341 89.8179C94.5217 86.8597 96.4456 83.9255 98.3053 80.9501C98.611 80.4618 98.9572 80.2764 99.5012 80.2085C99.4634 80.3071 99.4463 80.3729 99.4157 80.4309C98.3141 82.5611 97.2701 84.7244 96.0959 86.8146C94.4518 89.7392 92.7537 92.634 90.9971 95.4927C90.0224 97.077 88.8561 98.5394 87.4312 99.7628C86.3978 100.645 85.1586 101.031 83.8483 101.224ZM92.6486 97.4933C92.6049 97.4504 92.5599 97.4073 92.5162 97.3644C92.5952 97.2394 92.6625 97.1042 92.7544 96.9896C93.2527 96.3749 93.7369 95.7483 94.2631 95.1588C95.4187 93.8632 96.6587 92.6394 97.7527 91.295C101.225 87.0285 104.359 82.5115 107.415 77.9427C108.055 76.9873 108.731 76.1478 109.806 75.6695C110.22 75.4866 110.585 75.1993 110.974 74.9593C110.949 75.1358 110.877 75.2526 110.802 75.3647C109.071 77.9634 107.344 80.5641 105.608 83.1591C104.489 84.8312 103.465 86.5795 102.21 88.1437C100.088 90.7887 97.7463 93.2489 95.1948 95.4921C94.386 96.2054 93.4999 96.8294 92.6486 97.4933ZM93.2659 73.7963C95.4322 73.3679 97.6028 72.9376 99.7803 72.5071C100.131 73.4363 100.41 74.3461 99.9589 75.3027C99.6051 76.0538 99.2626 76.8096 98.8803 77.5462C98.7919 77.7168 98.5826 77.8915 98.3979 77.9356C96.7264 78.3373 95.0479 78.7108 93.3715 79.0874C93.2337 79.1182 93.0873 79.1137 92.9283 79.1273C93.536 77.1549 93.5522 76.9121 93.2659 73.7963ZM55.7689 65.3631C54.4425 66.9131 54.2014 68.7374 54.0564 70.6207C53.9199 70.5383 53.8205 70.4896 53.7338 70.4228C52.4321 69.408 51.1357 68.386 49.8304 67.3759C49.6003 67.1972 49.5119 66.9884 49.4934 66.7056C49.4467 66.0276 49.4213 65.344 49.2995 64.6783C49.0627 63.3845 49.6512 62.4605 50.5824 61.6056C52.296 62.8477 54.0193 64.0956 55.7689 65.3631ZM45.8926 84.221C45.8622 84.2251 45.832 84.2278 45.8016 84.2318C45.6745 83.8082 45.5207 83.3906 45.4273 82.9595C44.8441 80.2904 44.2692 77.6201 43.7028 74.9472C43.0498 71.8661 42.3771 68.7895 41.7771 65.6989C41.5192 64.3717 41.4263 63.0131 41.2581 61.6681C41.2975 61.6589 41.3356 61.6495 41.3751 61.6403C41.4426 61.7239 41.5113 61.8077 41.5775 61.8911C42.549 63.1077 43.5 64.3409 44.5035 65.5295C44.7955 65.8758 44.8768 66.1698 44.7982 66.604C44.6476 67.4346 44.4593 68.28 44.4767 69.1148C44.5583 72.9326 45.0974 76.7145 45.4966 80.5079C45.6258 81.746 45.7605 82.9838 45.8926 84.221ZM93.744 93.8054C93.7052 93.7809 93.6663 93.7564 93.6275 93.732C93.7183 93.5632 93.8065 93.3939 93.901 93.2271C96.4389 88.8158 99.0566 84.4498 101.177 79.813C101.224 79.7105 101.326 79.6033 101.428 79.5633C102.639 79.0957 103.855 78.64 105.151 78.1497C101.67 83.6623 98.0577 88.9906 93.744 93.8054ZM108.911 68.916C108.93 69.1773 108.983 69.3501 108.947 69.5029C108.746 70.3624 108.596 71.243 108.295 72.0683C107.486 74.2843 107.465 74.2845 105.51 75.2299C104.553 75.6927 103.572 76.1079 102.522 76.5799C103.086 74.7712 103.677 73.0754 103.408 71.3007C105.235 70.5095 107.037 69.7285 108.911 68.916ZM45.5756 62.9661C45.5244 62.9881 45.4745 63.0103 45.4231 63.0335C44.4005 61.5661 43.4038 60.0817 42.3454 58.6403C41.8846 58.0128 41.8594 57.4494 42.1942 56.7745C42.5691 56.019 42.923 55.2598 43.6095 54.657C44.9411 56.1187 46.2454 57.5512 47.5556 58.9888C46.513 60.1506 46.0187 61.5464 45.5756 62.9661ZM115.676 63.7925C115.782 64.1907 115.968 64.5344 115.941 64.8604C115.884 65.5455 115.759 66.2321 115.583 66.8988C115.296 67.9873 114.825 68.9753 113.86 69.6583C113.5 69.9141 113.195 70.2473 112.851 70.5276C112.316 70.9629 111.77 71.3828 111.228 71.8088C111.733 70.2165 112.308 68.673 111.628 67.0019C112.942 65.9588 114.245 64.9257 115.676 63.7925ZM40.1936 54.2405C40.1192 54.1881 40.0872 54.1784 40.0787 54.1579C40.0317 54.0578 39.9951 53.9527 39.9496 53.8514C39.2604 52.3313 38.9859 50.7109 38.7726 49.073C38.6189 47.8967 38.6566 47.8062 39.7947 47.435C39.9107 47.3976 40.029 47.3701 40.1467 47.3384C40.1937 47.4007 40.2336 47.4416 40.2561 47.4902C40.8762 48.8373 41.4992 50.1836 42.1016 51.5397C42.1495 51.6495 42.0837 51.8525 42.0031 51.9637C41.9102 52.0916 41.7493 52.1764 41.6063 52.2589C40.8451 52.6972 40.3161 53.3024 40.1936 54.2405ZM119.63 57.6527C120.791 58.0876 121.298 59.1406 120.773 60.1447C120.261 61.1229 119.611 62.0292 119.019 62.966C118.979 63.0292 118.915 63.0772 118.846 63.1499C118.389 62.6068 117.948 62.0894 117.521 61.5611C117.469 61.4965 117.447 61.3428 117.488 61.2745C118.198 60.0589 118.92 58.8495 119.63 57.6527ZM38.9646 40.0788C39.1521 41.4219 39.3408 42.7354 39.5118 44.0498C39.5268 44.17 39.4693 44.3717 39.3811 44.4194C39.0095 44.626 38.6135 44.7877 38.1601 44.9986C38.1053 44.654 38.0089 44.3614 38.0209 44.0746C38.067 42.9811 38.1399 41.8897 38.2195 40.7981C38.2699 40.128 38.3027 40.1109 38.9646 40.0788ZM120.951 55.2134C121.357 54.0138 121.76 52.8178 122.166 51.6129C122.78 52.6309 122.671 54.7027 121.928 56.2594C121.601 55.9097 121.275 55.5599 120.951 55.2134Z" fill="#FFFFF4"/>
<path d="M59.8484 123.82C59.281 123.83 59.0111 124.102 58.9887 124.69C58.987 124.745 58.9863 124.802 58.9885 124.858C59.0086 125.496 59.3438 125.971 59.8279 126.051C60.2805 126.125 60.7738 125.78 60.9433 125.177C61.0577 124.77 61.1105 124.33 61.101 123.905C61.08 123 60.8105 122.155 60.3026 121.398C59.3599 119.989 57.9145 120.054 57.1087 121.539C56.6342 122.415 56.5079 123.359 56.6338 124.328C56.8834 126.239 57.6887 127.836 59.3945 128.856C60.8219 129.711 62.2184 129.375 63.0903 127.959C64.0892 126.337 64.2208 124.559 63.8947 122.729C63.6457 121.329 63.1167 120.038 62.265 118.877C62.3121 118.847 62.3424 118.814 62.3752 118.811C63.9948 118.693 64.9872 117.722 65.4795 116.293C66.3239 113.84 66.1011 111.444 64.7439 109.202C64.1897 108.287 63.4239 107.584 62.3918 107.238C60.9777 106.764 59.7059 107.385 59.2361 108.803C58.6729 110.502 58.9249 112.12 59.845 113.641C59.9514 113.816 60.0928 113.978 60.2413 114.122C61.0543 114.909 62.0764 114.81 62.7405 113.886C63.3884 112.985 63.419 111.501 62.79 110.575C62.5901 110.28 62.3726 109.947 61.9346 110.049C61.6193 110.121 61.4053 110.527 61.4582 111.018C61.4915 111.324 61.5858 111.651 61.7448 111.911C62.02 112.359 62.009 112.823 61.6303 113.115C61.2658 113.396 60.8431 113.32 60.5241 112.86C59.9353 112.011 59.401 110.614 60.1385 109.331C60.8447 108.102 62.0992 107.972 62.9851 109.077C63.731 110.007 63.9911 111.109 64.0222 112.269C64.0479 113.247 63.8219 114.175 63.2878 115.006C62.5671 116.126 61.5016 116.34 60.3934 115.603C58.8458 114.574 58.2956 113.046 58.3657 111.287C58.4115 110.113 58.6196 108.944 58.7763 107.776C58.8369 107.322 58.9554 106.876 59.0424 106.426C59.2276 105.461 59.225 105.461 58.2047 105.026C58.1776 105.178 58.1549 105.321 58.1271 105.462C57.8365 106.935 57.5667 108.412 57.2399 109.876C57.142 110.312 56.9218 110.737 56.6857 111.123C56.1074 112.073 55.2648 112.309 54.2467 111.862C53.5356 111.549 52.9782 111.062 52.5989 110.387C51.6735 108.737 51.4852 106.997 52.0719 105.204C52.208 104.788 52.5029 104.391 52.8137 104.071C53.3814 103.483 54.112 103.474 54.7732 103.962C55.9715 104.845 56.5858 107.112 55.9762 108.465C55.7531 108.96 55.4549 109.407 54.8276 109.411C54.3641 109.414 53.9278 108.99 53.7648 108.328C53.6841 108.001 53.7178 107.645 53.6984 107.298C54.4563 107.258 54.7353 106.935 54.6958 106.277C54.6536 105.589 54.319 105.11 53.837 105.049C53.3761 104.992 52.8436 105.396 52.6972 106.029C52.3313 107.614 52.6843 109.051 53.8019 110.236C54.5322 111.01 55.5675 110.897 56.27 110.038C56.8894 109.281 57.1039 108.38 57.0822 107.426C57.0352 105.392 56.2737 103.686 54.6156 102.466C53.1866 101.415 51.6082 101.681 50.5702 103.12C49.4825 104.626 49.2586 106.331 49.5493 108.126C49.7656 109.459 50.246 110.696 50.9676 111.837C51.0254 111.93 51.0801 112.025 51.155 112.15C50.1806 112.261 49.3824 112.665 48.7551 113.382C48.1294 114.098 47.7914 114.958 47.7263 115.884C47.6631 116.778 47.6559 117.69 47.7623 118.579C47.9347 120.022 48.4666 121.349 49.3886 122.495C49.9402 123.18 50.614 123.711 51.4775 123.942C52.7844 124.29 53.9279 123.73 54.3922 122.457C55.0208 120.731 54.8179 119.057 53.8436 117.508C53.4396 116.865 52.8664 116.346 52.0209 116.522C51.1461 116.704 50.713 117.369 50.52 118.188C50.3122 119.067 50.4496 119.903 50.9724 120.652C51.1574 120.917 51.3954 121.187 51.7625 121.06C52.1194 120.936 52.2745 120.588 52.2306 120.251C52.1802 119.866 52.047 119.477 51.871 119.131C51.7179 118.831 51.6925 118.359 51.9328 118.109C52.2631 117.763 52.649 117.749 52.9995 118.071C54.0498 119.034 54.1588 121.175 53.2137 122.236C52.6332 122.888 51.8672 122.989 51.1686 122.469C50.9172 122.281 50.6652 122.051 50.5114 121.785C49.4945 120.035 49.3279 118.226 50.2441 116.379C50.3831 116.098 50.584 115.834 50.8024 115.608C51.3768 115.014 52.1236 114.892 52.863 115.273C54.4756 116.105 55.2369 117.493 55.3138 119.252C55.3523 120.136 55.2967 121.032 55.181 121.909C55.0434 122.955 54.8221 123.993 54.581 125.021C54.4835 125.439 54.562 125.673 54.9497 125.832C55.112 125.898 55.259 126.005 55.4768 126.132C55.5117 125.936 55.5358 125.793 55.5625 125.65C55.822 124.299 56.0416 122.937 56.3596 121.599C56.5044 120.99 56.7779 120.387 57.1092 119.853C57.6256 119.023 58.4122 118.844 59.3275 119.208C60.0801 119.508 60.6649 120 61.0564 120.706C61.9938 122.394 62.2065 124.164 61.5814 126.007C61.4938 126.264 61.3384 126.507 61.1725 126.726C60.4464 127.68 59.3999 127.772 58.6131 126.875C57.6031 125.724 57.2008 124.373 57.6457 122.853C57.7143 122.619 57.8488 122.395 57.9948 122.197C58.527 121.483 59.3083 121.538 59.7323 122.326C60.035 122.893 60.1527 123.415 59.8484 123.82ZM57.1132 113.605C57.2715 114.491 57.4125 115.276 57.548 116.062C57.5603 116.137 57.5583 116.239 57.5159 116.295C57.155 116.783 56.7832 117.263 56.3694 117.805C56.2133 116.946 56.0717 116.171 55.9369 115.397C55.9217 115.308 55.9268 115.188 55.9751 115.121C56.3293 114.634 56.6965 114.156 57.1132 113.605Z" fill="#FFFFF4"/>
<path d="M77.1715 68.9828C92.9815 70.4977 107.18 60.3356 108.884 46.2851C110.589 32.2346 99.1543 19.6164 83.3443 18.1016C67.5343 16.5867 53.3359 26.7489 51.6314 40.7993C49.9268 54.8498 61.3616 67.468 77.1715 68.9828Z" fill="#008DE4"/>
<path d="M88.113 29.8803L73.7268 28.5018L71.8173 34.3076L84.7976 35.5677C91.1915 36.1804 92.8313 38.4248 92.3619 41.8387C92.1185 43.5912 90.9079 46.475 90.4205 47.401C89.1253 49.8669 86.7462 52.6005 79.1624 51.863L66.5455 50.6486L64.6293 56.4592L78.979 57.8341C84.0419 58.3192 86.257 58.0015 88.6495 57.2854C93.9579 55.6958 97.5044 51.5495 99.4096 45.8799C102.248 37.4364 100.755 31.0915 88.113 29.8803Z" fill="white"/>
<path d="M66.1531 39.1854C62.3848 38.8244 61.5792 40.9547 61.0668 42.2389C60.3891 43.9225 60.1526 44.6047 60.1526 44.6047L74.8792 46.0158C78.6474 46.3768 79.4531 44.2465 79.9655 42.9623C80.6432 41.2787 80.8796 40.5965 80.8796 40.5965L66.1531 39.1854Z" fill="white"/>
</svg>
